<svg xmlns="http://www.w3.org/2000/svg" width="46" height="34" viewBox="0 0 46 34">
    <path fill="#E5E5E5" fill-rule="evenodd" d="M32.402 6.621c-1.718 1.992-2.754 4.024-3.105 6.094-.195 1.094-.293 2.031-.293 2.812 0 .899.098 1.641.293 2.227 1.836-1.914 4.16-2.871 6.973-2.871 2.812 0 5.097.82 6.855 2.46 1.758 1.641 2.637 3.907 2.637 6.798 0 2.734-.928 4.96-2.783 6.68-1.856 1.718-4.21 2.577-7.061 2.577-3.906 0-6.758-1.406-8.555-4.218-.82-1.211-1.465-2.705-1.933-4.483a21.392 21.392 0 0 1-.703-5.478c0-4.102 1.054-7.852 3.164-11.25C30 4.57 33.145 1.914 37.324 0l1.114 2.168c-2.305.977-4.317 2.46-6.036 4.453zm-24.726 0c-1.719 1.992-2.754 4.024-3.106 6.094-.195 1.094-.293 2.031-.293 2.812 0 .899.098 1.641.293 2.227 1.836-1.914 4.16-2.871 6.973-2.871 2.812 0 5.098.82 6.855 2.46 1.758 1.641 2.637 3.907 2.637 6.798 0 2.734-.928 4.96-2.783 6.68-1.856 1.718-4.209 2.577-7.06 2.577-3.907 0-6.758-1.406-8.555-4.218-.82-1.211-1.465-2.705-1.934-4.483A21.392 21.392 0 0 1 0 19.22c0-4.102 1.055-7.852 3.164-11.25C5.274 4.57 8.418 1.914 12.598 0l1.113 2.168c-2.305.977-4.316 2.46-6.035 4.453z"/>
</svg>
